name C:\Users\u0101727\Documents\MyRepositories\upper-imu-dc\Results\main_tracking\Case_10\FLX01_linearAccelerations_groundFrame.mot
datacolumns 4
datarows 58
range 3.51000000 4.08000000
endheader 
time	radius_imu_x	radius_imu_y	radius_imu_z	
          3.51000000	         -0.20720644	          9.79489506	          0.62139278	
          3.52000000	         -0.28217508	          9.79109341	          0.61336347	
          3.53000000	         -0.34220019	          9.78808590	          0.58341633	
          3.54000000	         -0.38268053	          9.78399051	          0.53191189	
          3.55000000	         -0.40364473	          9.77719598	          0.46144643	
          3.56000000	         -0.41076382	          9.76787588	          0.37752998	
          3.57000000	         -0.41268561	          9.75843586	          0.28753615	
          3.58000000	         -0.41717888	          9.75256605	          0.19889706	
          3.59000000	         -0.42853846	          9.75363821	          0.11778667	
          3.60000000	         -0.44697144	          9.76341716	          0.04879948	
          3.61000000	         -0.46863861	          9.78152365	         -0.00518793	
          3.62000000	         -0.48534115	          9.80556440	         -0.04365947	
          3.63000000	         -0.48519722	          9.83179127	         -0.06896063	
          3.64000000	         -0.45555810	          9.85601062	         -0.08552777	
          3.65000000	         -0.38685128	          9.87431905	         -0.09823644	
          3.66000000	         -0.27514259	          9.88344327	         -0.11095987	
          3.67000000	         -0.12316108	          9.88090422	         -0.12548030	
          3.68000000	          0.05920886	          9.86534230	         -0.14033959	
          3.69000000	          0.25463099	          9.83705601	         -0.14975601	
          3.70000000	          0.44022156	          9.79834610	         -0.14417521	
          3.71000000	          0.59501719	          9.75298499	         -0.11443051	
          3.72000000	          0.70877058	          9.70623816	         -0.05738122	
          3.73000000	          0.78583451	          9.66388902	          0.02168492	
          3.74000000	          0.84225471	          9.63096982	          0.11102291	
          3.75000000	          0.89868745	          9.61150834	          0.19646346	
          3.76000000	          0.97373602	          9.60695477	          0.26525346	
          3.77000000	          1.07833142	          9.61539673	          0.30870678	
          3.78000000	          1.21261485	          9.63190318	          0.32344093	
          3.79000000	          1.36554244	          9.64998525	          0.31155703	
          3.80000000	          1.51749672	          9.66354384	          0.27979192	
          3.81000000	          1.64559476	          9.66835701	          0.23749954	
          3.82000000	          1.73004754	          9.66253847	          0.19376798	
          3.83000000	          1.75925530	          9.64609399	          0.15461292	
          3.84000000	          1.73212892	          9.62015960	          0.12137555	
          3.85000000	          1.65754795	          9.58638814	          0.09090701	
          3.86000000	          1.55173888	          9.54666810	          0.05728445	
          3.87000000	          1.43431248	          9.50313682	          0.01434332	
          3.88000000	          1.32411664	          9.45836485	         -0.04200289	
          3.89000000	          1.23600833	          9.41555216	         -0.11232064	
          3.90000000	          1.17918032	          9.37848787	         -0.19331398	
          3.91000000	          1.15684944	          9.35102395	         -0.27847122	
          3.92000000	          1.16679464	          9.33598344	         -0.35945463	
          3.93000000	          1.20242874	          9.33377249	         -0.42782150	
          3.94000000	          1.25442629	          9.34132056	         -0.47656500	
          3.95000000	          1.31305351	          9.35202326	         -0.50114949	
          3.96000000	          1.37088663	          9.35697325	         -0.49997513	
          3.97000000	          1.42487544	          9.34712441	         -0.47427249	
          3.98000000	          1.47672706	          9.31551017	         -0.42749351	
          3.99000000	          1.53145933	          9.25865077	         -0.36445959	
          4.00000000	          1.59482796	          9.17684007	         -0.29060825	
          4.01000000	          1.67065999	          9.07363283	         -0.21151028	
          4.02000000	          1.75901154	          8.95505494	         -0.13260798	
          4.03000000	          1.85567733	          8.82881255	         -0.05900365	
          4.04000000	          1.95282301	          8.70351677	          0.00491529	
          4.05000000	          2.03976958	          8.58794314	          0.05611327	
          4.06000000	          2.10327158	          8.49040613	          0.09360947	
          4.07000000	          2.12782531	          8.41829433	          0.11888384	
          4.08000000	          2.09706098	          8.37775342	          0.13578485	
